<mxfile host="app.diagrams.net" agent="Mozilla/5.0 (Windows NT 10.0; Win64; x64) AppleWebKit/537.36 (KHTML, like Gecko) Chrome/131.0.0.0 Safari/537.36" version="25.0.3">
  <diagram name="Page-1" id="jj5_dQ6UBjTT0SllOO4b">
    <mxGraphModel dx="921" dy="572" grid="0" gridSize="10" guides="1" tooltips="1" connect="1" arrows="1" fold="1" page="0" pageScale="1" pageWidth="850" pageHeight="1100" math="0" shadow="0">
      <root>
        <mxCell id="0" />
        <mxCell id="1" parent="0" />
        <mxCell id="QuU6S_Qpokp5YZ09jF8J-10" value="" style="edgeStyle=none;curved=1;rounded=0;orthogonalLoop=1;jettySize=auto;html=1;fontSize=12;startSize=8;endSize=8;entryX=0.5;entryY=0;entryDx=0;entryDy=0;" edge="1" parent="1" source="QuU6S_Qpokp5YZ09jF8J-1" target="QuU6S_Qpokp5YZ09jF8J-3">
          <mxGeometry relative="1" as="geometry" />
        </mxCell>
        <mxCell id="QuU6S_Qpokp5YZ09jF8J-1" value="Начало" style="ellipse;whiteSpace=wrap;html=1;" vertex="1" parent="1">
          <mxGeometry x="81" y="64" width="78" height="41" as="geometry" />
        </mxCell>
        <mxCell id="QuU6S_Qpokp5YZ09jF8J-2" value="Конец" style="ellipse;whiteSpace=wrap;html=1;" vertex="1" parent="1">
          <mxGeometry x="81" y="476" width="78" height="43" as="geometry" />
        </mxCell>
        <mxCell id="QuU6S_Qpokp5YZ09jF8J-11" value="" style="edgeStyle=none;curved=1;rounded=0;orthogonalLoop=1;jettySize=auto;html=1;fontSize=12;startSize=8;endSize=8;entryX=0.5;entryY=0;entryDx=0;entryDy=0;" edge="1" parent="1" source="QuU6S_Qpokp5YZ09jF8J-3" target="QuU6S_Qpokp5YZ09jF8J-4">
          <mxGeometry relative="1" as="geometry" />
        </mxCell>
        <mxCell id="QuU6S_Qpokp5YZ09jF8J-3" value="&lt;div&gt;sum := 0;&lt;/div&gt;&lt;div&gt;first_y := y_list[1];&lt;/div&gt;&lt;div&gt;sum := sum + first_y;&lt;/div&gt;&lt;div&gt;n := numelems(x_list);&lt;/div&gt;" style="rounded=0;whiteSpace=wrap;html=1;" vertex="1" parent="1">
          <mxGeometry x="55" y="130" width="130" height="60" as="geometry" />
        </mxCell>
        <mxCell id="QuU6S_Qpokp5YZ09jF8J-13" value="" style="edgeStyle=none;curved=1;rounded=0;orthogonalLoop=1;jettySize=auto;html=1;fontSize=12;startSize=8;endSize=8;entryX=0.5;entryY=0;entryDx=0;entryDy=0;" edge="1" parent="1" source="QuU6S_Qpokp5YZ09jF8J-4" target="QuU6S_Qpokp5YZ09jF8J-5">
          <mxGeometry relative="1" as="geometry" />
        </mxCell>
        <mxCell id="QuU6S_Qpokp5YZ09jF8J-4" value="for i from 1 by 1 to n-1" style="shape=trapezoid;perimeter=trapezoidPerimeter;whiteSpace=wrap;html=1;fixedSize=1;" vertex="1" parent="1">
          <mxGeometry x="39" y="215" width="162" height="34" as="geometry" />
        </mxCell>
        <mxCell id="QuU6S_Qpokp5YZ09jF8J-14" value="" style="edgeStyle=none;curved=1;rounded=0;orthogonalLoop=1;jettySize=auto;html=1;fontSize=12;startSize=8;endSize=8;entryX=0.5;entryY=0;entryDx=0;entryDy=0;" edge="1" parent="1" source="QuU6S_Qpokp5YZ09jF8J-5" target="QuU6S_Qpokp5YZ09jF8J-8">
          <mxGeometry relative="1" as="geometry" />
        </mxCell>
        <mxCell id="QuU6S_Qpokp5YZ09jF8J-5" value="next_term=1" style="rounded=0;whiteSpace=wrap;html=1;" vertex="1" parent="1">
          <mxGeometry x="73.5" y="273" width="93" height="30" as="geometry" />
        </mxCell>
        <mxCell id="QuU6S_Qpokp5YZ09jF8J-16" style="edgeStyle=none;curved=1;rounded=0;orthogonalLoop=1;jettySize=auto;html=1;exitX=0;exitY=0.5;exitDx=0;exitDy=0;fontSize=12;startSize=8;endSize=8;entryX=0;entryY=0.5;entryDx=0;entryDy=0;" edge="1" parent="1" source="QuU6S_Qpokp5YZ09jF8J-7" target="QuU6S_Qpokp5YZ09jF8J-4">
          <mxGeometry relative="1" as="geometry">
            <Array as="points">
              <mxPoint x="-36" y="333" />
              <mxPoint x="4" y="250" />
            </Array>
          </mxGeometry>
        </mxCell>
        <mxCell id="QuU6S_Qpokp5YZ09jF8J-17" style="edgeStyle=none;curved=1;rounded=0;orthogonalLoop=1;jettySize=auto;html=1;exitX=0.5;exitY=1;exitDx=0;exitDy=0;entryX=0.5;entryY=0;entryDx=0;entryDy=0;fontSize=12;startSize=8;endSize=8;" edge="1" parent="1" source="QuU6S_Qpokp5YZ09jF8J-7" target="QuU6S_Qpokp5YZ09jF8J-2">
          <mxGeometry relative="1" as="geometry" />
        </mxCell>
        <mxCell id="QuU6S_Qpokp5YZ09jF8J-7" value="&lt;div&gt;next_term := CountSplitSum([op(1 .. i + 1, x_list)], [op(1 .. i + 1, y_list)], i + 1) * next_term;&lt;/div&gt;&lt;div&gt;sum := sum + next_term;&lt;/div&gt;" style="rounded=0;whiteSpace=wrap;html=1;" vertex="1" parent="1">
          <mxGeometry x="-15.5" y="386" width="271" height="60" as="geometry" />
        </mxCell>
        <mxCell id="QuU6S_Qpokp5YZ09jF8J-15" value="" style="edgeStyle=none;curved=1;rounded=0;orthogonalLoop=1;jettySize=auto;html=1;fontSize=12;startSize=8;endSize=8;" edge="1" parent="1" source="QuU6S_Qpokp5YZ09jF8J-8" target="QuU6S_Qpokp5YZ09jF8J-7">
          <mxGeometry relative="1" as="geometry" />
        </mxCell>
        <mxCell id="QuU6S_Qpokp5YZ09jF8J-8" value="for j from 1 by 1 to n-1" style="shape=trapezoid;perimeter=trapezoidPerimeter;whiteSpace=wrap;html=1;fixedSize=1;" vertex="1" parent="1">
          <mxGeometry x="39" y="330" width="162" height="34" as="geometry" />
        </mxCell>
      </root>
    </mxGraphModel>
  </diagram>
</mxfile>
